<svg xmlns="http://www.w3.org/2000/svg" xmlns:xlink="http://www.w3.org/1999/xlink" width="500" zoomAndPan="magnify" viewBox="0 0 375 374.999991" height="500" preserveAspectRatio="xMidYMid meet" version="1.0"><defs><g/><clipPath id="ad1c0f5c1c"><path d="M 38 84 L 165 84 L 165 309.5 L 38 309.5 Z M 38 84 " clip-rule="nonzero"/></clipPath></defs><g clip-path="url(#ad1c0f5c1c)"><path fill="#000000" d="M 67.113281 210.425781 C 68.566406 212.367188 70.785156 213.390625 73.03125 213.390625 C 73.128906 213.390625 73.230469 213.371094 73.328125 213.367188 L 73.328125 297.898438 C 73.328125 304.234375 78.445312 309.363281 84.75 309.363281 C 91.058594 309.363281 96.175781 304.234375 96.175781 297.898438 L 96.175781 214.195312 L 100.457031 214.195312 L 100.457031 297.898438 C 100.457031 304.234375 105.574219 309.363281 111.878906 309.363281 C 118.1875 309.363281 123.304688 304.234375 123.304688 297.898438 L 123.304688 149.15625 L 159.679688 136.414062 C 162.238281 135.515625 164.101562 133.289062 164.539062 130.605469 C 164.976562 127.925781 163.917969 125.214844 161.777344 123.550781 L 113.054688 85.574219 C 109.832031 83.0625 105.1875 83.644531 102.683594 86.882812 C 102.5 87.125 102.335938 87.375 102.179688 87.632812 C 112.980469 89.484375 121.226562 98.9375 121.226562 110.292969 C 121.226562 110.4375 121.21875 110.578125 121.21875 110.71875 L 141.976562 126.898438 L 114.738281 136.441406 L 80.46875 136.441406 C 80.21875 136.441406 79.972656 136.457031 79.730469 136.480469 C 78.238281 136.511719 76.738281 136.988281 75.453125 137.957031 L 41.375 163.648438 C 38.113281 166.109375 37.453125 170.753906 39.902344 174.03125 Z M 73.328125 158.117188 L 73.328125 194.019531 L 56.160156 171.058594 Z M 73.328125 158.117188 " fill-opacity="1" fill-rule="nonzero"/></g><path fill="#000000" d="M 98.316406 89.429688 C 86.835938 89.429688 77.527344 98.773438 77.527344 110.292969 C 77.527344 121.816406 86.835938 131.160156 98.316406 131.160156 C 109.796875 131.160156 119.101562 121.816406 119.101562 110.292969 C 119.101562 98.773438 109.796875 89.429688 98.316406 89.429688 Z M 111.003906 117.835938 C 99.691406 114.703125 91.335938 120.859375 91.253906 120.921875 L 89.582031 118.703125 C 89.960938 118.414062 99.074219 111.640625 111.738281 115.152344 Z M 111.003906 117.835938 " fill-opacity="1" fill-rule="nonzero"/><path fill="#000000" d="M 108.117188 77.414062 C 106.089844 76.578125 104.246094 76.515625 102.632812 77.234375 C 100.144531 78.339844 99.191406 80.910156 99.152344 81.019531 C 98.980469 81.5 99.226562 82.027344 99.707031 82.203125 C 99.738281 82.214844 99.769531 82.222656 99.804688 82.234375 C 100.253906 82.34375 100.726562 82.097656 100.890625 81.652344 C 100.898438 81.632812 101.628906 79.699219 103.394531 78.921875 C 104.527344 78.425781 105.878906 78.496094 107.414062 79.128906 C 107.886719 79.324219 108.425781 79.097656 108.621094 78.625 C 108.816406 78.152344 108.589844 77.609375 108.117188 77.414062 Z M 108.117188 77.414062 " fill-opacity="1" fill-rule="nonzero"/><path fill="#000000" d="M 96.347656 79.230469 C 96.394531 79.25 96.445312 79.265625 96.492188 79.277344 C 96.921875 79.382812 97.378906 79.164062 97.558594 78.742188 C 97.574219 78.710938 98.894531 75.691406 101.851562 74.546875 C 103.789062 73.800781 106.03125 73.996094 108.523438 75.144531 C 108.988281 75.355469 109.535156 75.152344 109.746094 74.683594 C 109.960938 74.21875 109.757812 73.667969 109.292969 73.457031 C 106.320312 72.09375 103.585938 71.882812 101.164062 72.828125 C 97.476562 74.265625 95.925781 77.863281 95.859375 78.019531 C 95.660156 78.488281 95.878906 79.03125 96.347656 79.230469 Z M 96.347656 79.230469 " fill-opacity="1" fill-rule="nonzero"/><path fill="#000000" d="M 71.566406 89.8125 C 68.21875 82.199219 54.832031 78.980469 53.609375 86.085938 C 52.460938 92.777344 60.144531 88.128906 71.566406 89.8125 Z M 71.566406 89.8125 " fill-opacity="1" fill-rule="nonzero"/><path fill="#000000" d="M 80.828125 87.527344 C 83.359375 81.445312 77.902344 71.96875 73.167969 75.136719 C 68.710938 78.125 75.558594 80.019531 80.828125 87.527344 Z M 80.828125 87.527344 " fill-opacity="1" fill-rule="nonzero"/><path fill="#000000" d="M 60.035156 101.65625 C 60.109375 106.359375 64.746094 102.207031 72.738281 101.878906 C 69.484375 97.128906 59.957031 96.660156 60.035156 101.65625 Z M 60.035156 101.65625 " fill-opacity="1" fill-rule="nonzero"/><path fill="#000000" d="M 131.171875 86.617188 C 132.539062 87.128906 133.707031 86.402344 134.109375 85.324219 C 134.554688 84.125 134.066406 82.941406 132.667969 82.417969 C 131.390625 81.9375 130.167969 82.546875 129.742188 83.683594 C 129.308594 84.855469 129.746094 86.082031 131.171875 86.617188 Z M 131.171875 86.617188 " fill-opacity="1" fill-rule="nonzero"/><path fill="#000000" d="M 135.222656 80.015625 C 135.917969 78.144531 136.449219 77.878906 138.652344 77.304688 C 141.332031 76.613281 142.71875 75.46875 143.535156 73.277344 C 144.285156 71.261719 143.808594 68.355469 139.851562 66.871094 C 137.84375 66.117188 135.488281 65.933594 134.089844 66.039062 L 132.511719 70.277344 L 135.597656 71.699219 L 136.230469 70.003906 C 136.382812 69.597656 136.613281 69.417969 136.898438 69.457031 C 137.320312 69.480469 137.785156 69.65625 138.28125 69.84375 C 139.414062 70.269531 139.9375 71.097656 139.5 72.265625 C 138.9375 73.78125 137.917969 73.933594 136.320312 74.398438 C 134.09375 75.03125 132.90625 75.550781 132.222656 78.089844 L 131.644531 80.269531 L 134.699219 81.417969 Z M 135.222656 80.015625 " fill-opacity="1" fill-rule="nonzero"/><path fill="#000000" d="M 147.707031 84.695312 C 148.402344 82.824219 148.933594 82.558594 151.136719 81.988281 C 153.816406 81.292969 155.203125 80.148438 156.019531 77.960938 C 156.769531 75.941406 156.292969 73.035156 152.335938 71.550781 C 150.328125 70.796875 147.972656 70.613281 146.574219 70.722656 L 144.996094 74.957031 L 148.082031 76.378906 L 148.714844 74.6875 C 148.867188 74.277344 149.097656 74.097656 149.382812 74.136719 C 149.804688 74.164062 150.269531 74.335938 150.765625 74.523438 C 151.898438 74.949219 152.421875 75.777344 151.984375 76.945312 C 151.417969 78.464844 150.402344 78.613281 148.800781 79.082031 C 146.578125 79.710938 145.386719 80.230469 144.707031 82.773438 L 144.128906 84.953125 L 147.183594 86.097656 Z M 147.707031 84.695312 " fill-opacity="1" fill-rule="nonzero"/><path fill="#000000" d="M 142.226562 88.367188 C 141.792969 89.535156 142.230469 90.765625 143.65625 91.300781 C 145.023438 91.8125 146.191406 91.085938 146.59375 90.003906 C 147.039062 88.804688 146.550781 87.625 145.152344 87.101562 C 143.871094 86.621094 142.652344 87.226562 142.226562 88.367188 Z M 142.226562 88.367188 " fill-opacity="1" fill-rule="nonzero"/><g fill="#000000" fill-opacity="1"><g transform="translate(209.814116, 149.353605)"><g><path d="M 10.515625 0.1875 C 8.785156 0.1875 7.207031 -0.21875 5.78125 -1.03125 C 4.351562 -1.84375 3.222656 -2.972656 2.390625 -4.421875 C 1.566406 -5.878906 1.15625 -7.519531 1.15625 -9.34375 C 1.15625 -11.164062 1.566406 -12.800781 2.390625 -14.25 C 3.222656 -15.707031 4.351562 -16.84375 5.78125 -17.65625 C 7.207031 -18.46875 8.785156 -18.875 10.515625 -18.875 C 12.265625 -18.875 13.851562 -18.46875 15.28125 -17.65625 C 16.707031 -16.84375 17.832031 -15.710938 18.65625 -14.265625 C 19.476562 -12.816406 19.890625 -11.175781 19.890625 -9.34375 C 19.890625 -7.5 19.476562 -5.851562 18.65625 -4.40625 C 17.832031 -2.96875 16.707031 -1.84375 15.28125 -1.03125 C 13.851562 -0.21875 12.265625 0.1875 10.515625 0.1875 Z M 10.515625 -1.921875 C 11.816406 -1.921875 12.988281 -2.222656 14.03125 -2.828125 C 15.082031 -3.441406 15.90625 -4.3125 16.5 -5.4375 C 17.09375 -6.5625 17.390625 -7.863281 17.390625 -9.34375 C 17.390625 -10.84375 17.09375 -12.148438 16.5 -13.265625 C 15.90625 -14.378906 15.085938 -15.238281 14.046875 -15.84375 C 13.015625 -16.445312 11.835938 -16.75 10.515625 -16.75 C 9.191406 -16.75 8.015625 -16.445312 6.984375 -15.84375 C 5.953125 -15.238281 5.132812 -14.378906 4.53125 -13.265625 C 3.9375 -12.148438 3.640625 -10.84375 3.640625 -9.34375 C 3.640625 -7.863281 3.9375 -6.5625 4.53125 -5.4375 C 5.132812 -4.3125 5.957031 -3.441406 7 -2.828125 C 8.039062 -2.222656 9.210938 -1.921875 10.515625 -1.921875 Z M 10.515625 -1.921875 "/></g></g></g><g fill="#000000" fill-opacity="1"><g transform="translate(230.851868, 149.353605)"><g><path d="M 4.5 -11.96875 C 4.976562 -12.800781 5.691406 -13.5 6.640625 -14.0625 C 7.597656 -14.625 8.710938 -14.90625 9.984375 -14.90625 C 11.285156 -14.90625 12.46875 -14.59375 13.53125 -13.96875 C 14.59375 -13.34375 15.425781 -12.460938 16.03125 -11.328125 C 16.632812 -10.203125 16.9375 -8.890625 16.9375 -7.390625 C 16.9375 -5.910156 16.632812 -4.585938 16.03125 -3.421875 C 15.425781 -2.265625 14.59375 -1.363281 13.53125 -0.71875 C 12.46875 -0.0820312 11.285156 0.234375 9.984375 0.234375 C 8.734375 0.234375 7.628906 -0.046875 6.671875 -0.609375 C 5.722656 -1.171875 5 -1.867188 4.5 -2.703125 L 4.5 6.953125 L 2.0625 6.953125 L 2.0625 -14.671875 L 4.5 -14.671875 Z M 14.453125 -7.390625 C 14.453125 -8.492188 14.226562 -9.457031 13.78125 -10.28125 C 13.332031 -11.101562 12.726562 -11.726562 11.96875 -12.15625 C 11.21875 -12.582031 10.382812 -12.796875 9.46875 -12.796875 C 8.582031 -12.796875 7.757812 -12.578125 7 -12.140625 C 6.238281 -11.703125 5.628906 -11.066406 5.171875 -10.234375 C 4.722656 -9.410156 4.5 -8.453125 4.5 -7.359375 C 4.5 -6.253906 4.722656 -5.285156 5.171875 -4.453125 C 5.628906 -3.628906 6.238281 -3 7 -2.5625 C 7.757812 -2.125 8.582031 -1.90625 9.46875 -1.90625 C 10.382812 -1.90625 11.21875 -2.125 11.96875 -2.5625 C 12.726562 -3 13.332031 -3.628906 13.78125 -4.453125 C 14.226562 -5.285156 14.453125 -6.265625 14.453125 -7.390625 Z M 14.453125 -7.390625 "/></g></g></g><g fill="#000000" fill-opacity="1"><g transform="translate(248.9454, 149.353605)"><g><path d="M 7.25 0.234375 C 6.125 0.234375 5.113281 0.046875 4.21875 -0.328125 C 3.332031 -0.710938 2.628906 -1.25 2.109375 -1.9375 C 1.597656 -2.625 1.316406 -3.414062 1.265625 -4.3125 L 3.78125 -4.3125 C 3.84375 -3.582031 4.179688 -2.984375 4.796875 -2.515625 C 5.421875 -2.046875 6.234375 -1.8125 7.234375 -1.8125 C 8.160156 -1.8125 8.890625 -2.015625 9.421875 -2.421875 C 9.953125 -2.835938 10.21875 -3.359375 10.21875 -3.984375 C 10.21875 -4.628906 9.929688 -5.109375 9.359375 -5.421875 C 8.796875 -5.734375 7.914062 -6.039062 6.71875 -6.34375 C 5.625 -6.625 4.734375 -6.910156 4.046875 -7.203125 C 3.367188 -7.503906 2.78125 -7.941406 2.28125 -8.515625 C 1.789062 -9.097656 1.546875 -9.863281 1.546875 -10.8125 C 1.546875 -11.5625 1.769531 -12.25 2.21875 -12.875 C 2.664062 -13.5 3.300781 -13.992188 4.125 -14.359375 C 4.945312 -14.722656 5.882812 -14.90625 6.9375 -14.90625 C 8.5625 -14.90625 9.867188 -14.492188 10.859375 -13.671875 C 11.859375 -12.859375 12.394531 -11.738281 12.46875 -10.3125 L 10.03125 -10.3125 C 9.976562 -11.070312 9.671875 -11.679688 9.109375 -12.140625 C 8.546875 -12.609375 7.796875 -12.84375 6.859375 -12.84375 C 5.984375 -12.84375 5.285156 -12.65625 4.765625 -12.28125 C 4.242188 -11.90625 3.984375 -11.414062 3.984375 -10.8125 C 3.984375 -10.332031 4.140625 -9.9375 4.453125 -9.625 C 4.765625 -9.3125 5.15625 -9.0625 5.625 -8.875 C 6.101562 -8.6875 6.757812 -8.476562 7.59375 -8.25 C 8.65625 -7.957031 9.515625 -7.671875 10.171875 -7.390625 C 10.828125 -7.117188 11.390625 -6.707031 11.859375 -6.15625 C 12.335938 -5.601562 12.585938 -4.878906 12.609375 -3.984375 C 12.609375 -3.179688 12.382812 -2.457031 11.9375 -1.8125 C 11.488281 -1.175781 10.859375 -0.675781 10.046875 -0.3125 C 9.234375 0.0507812 8.300781 0.234375 7.25 0.234375 Z M 7.25 0.234375 "/></g></g></g><g fill="#000000" fill-opacity="1"><g transform="translate(262.917033, 149.353605)"><g><path d="M 5.21875 -18.65625 L 4.921875 -5.265625 L 2.890625 -5.265625 L 2.59375 -18.65625 Z M 4.015625 0.15625 C 3.546875 0.15625 3.148438 0 2.828125 -0.3125 C 2.515625 -0.632812 2.359375 -1.03125 2.359375 -1.5 C 2.359375 -1.957031 2.515625 -2.347656 2.828125 -2.671875 C 3.148438 -2.992188 3.546875 -3.15625 4.015625 -3.15625 C 4.460938 -3.15625 4.84375 -2.992188 5.15625 -2.671875 C 5.46875 -2.347656 5.625 -1.957031 5.625 -1.5 C 5.625 -1.03125 5.46875 -0.632812 5.15625 -0.3125 C 4.84375 0 4.460938 0.15625 4.015625 0.15625 Z M 4.015625 0.15625 "/></g></g></g><g fill="#000000" fill-opacity="1"><g transform="translate(149.210605, 188.156793)"><g/></g></g><g fill="#000000" fill-opacity="1"><g transform="translate(156.370761, 188.156793)"><g><path d="M 16.75 0 L 14.3125 0 L 4.5 -14.875 L 4.5 0 L 2.0625 0 L 2.0625 -18.703125 L 4.5 -18.703125 L 14.3125 -3.859375 L 14.3125 -18.703125 L 16.75 -18.703125 Z M 16.75 0 "/></g></g></g><g fill="#000000" fill-opacity="1"><g transform="translate(175.203431, 188.156793)"><g><path d="M 1.15625 -7.390625 C 1.15625 -8.890625 1.457031 -10.207031 2.0625 -11.34375 C 2.664062 -12.476562 3.5 -13.359375 4.5625 -13.984375 C 5.625 -14.609375 6.8125 -14.921875 8.125 -14.921875 C 9.40625 -14.921875 10.519531 -14.644531 11.46875 -14.09375 C 12.414062 -13.539062 13.125 -12.84375 13.59375 -12 L 13.59375 -14.6875 L 16.046875 -14.6875 L 16.046875 0 L 13.59375 0 L 13.59375 -2.734375 C 13.101562 -1.878906 12.378906 -1.171875 11.421875 -0.609375 C 10.472656 -0.046875 9.363281 0.234375 8.09375 0.234375 C 6.789062 0.234375 5.609375 -0.0820312 4.546875 -0.71875 C 3.492188 -1.363281 2.664062 -2.265625 2.0625 -3.421875 C 1.457031 -4.585938 1.15625 -5.910156 1.15625 -7.390625 Z M 13.59375 -7.375 C 13.59375 -8.476562 13.367188 -9.441406 12.921875 -10.265625 C 12.472656 -11.085938 11.867188 -11.71875 11.109375 -12.15625 C 10.347656 -12.59375 9.515625 -12.8125 8.609375 -12.8125 C 7.691406 -12.8125 6.859375 -12.59375 6.109375 -12.15625 C 5.359375 -11.726562 4.757812 -11.101562 4.3125 -10.28125 C 3.863281 -9.46875 3.640625 -8.503906 3.640625 -7.390625 C 3.640625 -6.265625 3.863281 -5.285156 4.3125 -4.453125 C 4.757812 -3.628906 5.359375 -3 6.109375 -2.5625 C 6.859375 -2.125 7.691406 -1.90625 8.609375 -1.90625 C 9.515625 -1.90625 10.347656 -2.125 11.109375 -2.5625 C 11.867188 -3 12.472656 -3.628906 12.921875 -4.453125 C 13.367188 -5.285156 13.59375 -6.257812 13.59375 -7.375 Z M 5.140625 -16.265625 C 5.265625 -17.171875 5.5625 -17.863281 6.03125 -18.34375 C 6.507812 -18.832031 7.109375 -19.078125 7.828125 -19.078125 C 8.160156 -19.078125 8.445312 -19.019531 8.6875 -18.90625 C 8.9375 -18.789062 9.226562 -18.625 9.5625 -18.40625 C 9.8125 -18.226562 10.035156 -18.085938 10.234375 -17.984375 C 10.429688 -17.890625 10.644531 -17.84375 10.875 -17.84375 C 11.175781 -17.84375 11.429688 -17.941406 11.640625 -18.140625 C 11.859375 -18.335938 12 -18.625 12.0625 -19 L 13.453125 -19 C 13.347656 -18.101562 13.050781 -17.414062 12.5625 -16.9375 C 12.082031 -16.457031 11.484375 -16.21875 10.765625 -16.21875 C 10.429688 -16.21875 10.132812 -16.273438 9.875 -16.390625 C 9.613281 -16.503906 9.320312 -16.675781 9 -16.90625 C 8.71875 -17.082031 8.488281 -17.210938 8.3125 -17.296875 C 8.144531 -17.390625 7.945312 -17.4375 7.71875 -17.4375 C 7.414062 -17.4375 7.160156 -17.335938 6.953125 -17.140625 C 6.742188 -16.953125 6.613281 -16.660156 6.5625 -16.265625 Z M 5.140625 -16.265625 "/></g></g></g><g fill="#000000" fill-opacity="1"><g transform="translate(193.312801, 188.156793)"><g><path d="M 8.46875 0.234375 C 7.09375 0.234375 5.847656 -0.078125 4.734375 -0.703125 C 3.617188 -1.328125 2.742188 -2.210938 2.109375 -3.359375 C 1.472656 -4.515625 1.15625 -5.851562 1.15625 -7.375 C 1.15625 -8.875 1.476562 -10.195312 2.125 -11.34375 C 2.78125 -12.5 3.671875 -13.382812 4.796875 -14 C 5.921875 -14.613281 7.179688 -14.921875 8.578125 -14.921875 C 9.972656 -14.921875 11.234375 -14.613281 12.359375 -14 C 13.484375 -13.382812 14.367188 -12.503906 15.015625 -11.359375 C 15.671875 -10.210938 16 -8.882812 16 -7.375 C 16 -5.851562 15.660156 -4.515625 14.984375 -3.359375 C 14.316406 -2.210938 13.410156 -1.328125 12.265625 -0.703125 C 11.128906 -0.078125 9.863281 0.234375 8.46875 0.234375 Z M 8.46875 -1.90625 C 9.34375 -1.90625 10.160156 -2.109375 10.921875 -2.515625 C 11.691406 -2.929688 12.3125 -3.546875 12.78125 -4.359375 C 13.257812 -5.179688 13.5 -6.1875 13.5 -7.375 C 13.5 -8.550781 13.265625 -9.550781 12.796875 -10.375 C 12.335938 -11.195312 11.734375 -11.804688 10.984375 -12.203125 C 10.234375 -12.609375 9.421875 -12.8125 8.546875 -12.8125 C 7.648438 -12.8125 6.832031 -12.609375 6.09375 -12.203125 C 5.351562 -11.804688 4.757812 -11.195312 4.3125 -10.375 C 3.863281 -9.550781 3.640625 -8.550781 3.640625 -7.375 C 3.640625 -6.175781 3.859375 -5.164062 4.296875 -4.34375 C 4.734375 -3.519531 5.316406 -2.90625 6.046875 -2.5 C 6.785156 -2.101562 7.59375 -1.90625 8.46875 -1.90625 Z M 8.46875 -1.90625 "/></g></g></g><g fill="#000000" fill-opacity="1"><g transform="translate(210.457766, 188.156793)"><g/></g></g><g fill="#000000" fill-opacity="1"><g transform="translate(217.610426, 188.156793)"><g><path d="M 9.359375 -14.953125 C 10.460938 -14.953125 11.457031 -14.710938 12.34375 -14.234375 C 13.238281 -13.765625 13.941406 -13.054688 14.453125 -12.109375 C 14.960938 -11.160156 15.21875 -10.007812 15.21875 -8.65625 L 15.21875 0 L 12.8125 0 L 12.8125 -8.3125 C 12.8125 -9.769531 12.441406 -10.882812 11.703125 -11.65625 C 10.972656 -12.4375 9.972656 -12.828125 8.703125 -12.828125 C 7.421875 -12.828125 6.398438 -12.425781 5.640625 -11.625 C 4.878906 -10.820312 4.5 -9.65625 4.5 -8.125 L 4.5 0 L 2.0625 0 L 2.0625 -19.828125 L 4.5 -19.828125 L 4.5 -12.59375 C 4.976562 -13.34375 5.640625 -13.921875 6.484375 -14.328125 C 7.335938 -14.742188 8.296875 -14.953125 9.359375 -14.953125 Z M 9.359375 -14.953125 "/></g></g></g><g fill="#000000" fill-opacity="1"><g transform="translate(234.755391, 188.156793)"><g><path d="M 1.15625 -7.390625 C 1.15625 -8.890625 1.457031 -10.207031 2.0625 -11.34375 C 2.664062 -12.476562 3.5 -13.359375 4.5625 -13.984375 C 5.625 -14.609375 6.8125 -14.921875 8.125 -14.921875 C 9.40625 -14.921875 10.519531 -14.644531 11.46875 -14.09375 C 12.414062 -13.539062 13.125 -12.84375 13.59375 -12 L 13.59375 -14.6875 L 16.046875 -14.6875 L 16.046875 0 L 13.59375 0 L 13.59375 -2.734375 C 13.101562 -1.878906 12.378906 -1.171875 11.421875 -0.609375 C 10.472656 -0.046875 9.363281 0.234375 8.09375 0.234375 C 6.789062 0.234375 5.609375 -0.0820312 4.546875 -0.71875 C 3.492188 -1.363281 2.664062 -2.265625 2.0625 -3.421875 C 1.457031 -4.585938 1.15625 -5.910156 1.15625 -7.390625 Z M 13.59375 -7.375 C 13.59375 -8.476562 13.367188 -9.441406 12.921875 -10.265625 C 12.472656 -11.085938 11.867188 -11.71875 11.109375 -12.15625 C 10.347656 -12.59375 9.515625 -12.8125 8.609375 -12.8125 C 7.691406 -12.8125 6.859375 -12.59375 6.109375 -12.15625 C 5.359375 -11.726562 4.757812 -11.101562 4.3125 -10.28125 C 3.863281 -9.46875 3.640625 -8.503906 3.640625 -7.390625 C 3.640625 -6.265625 3.863281 -5.285156 4.3125 -4.453125 C 4.757812 -3.628906 5.359375 -3 6.109375 -2.5625 C 6.859375 -2.125 7.691406 -1.90625 8.609375 -1.90625 C 9.515625 -1.90625 10.347656 -2.125 11.109375 -2.5625 C 11.867188 -3 12.472656 -3.628906 12.921875 -4.453125 C 13.367188 -5.285156 13.59375 -6.257812 13.59375 -7.375 Z M 11.671875 -18.84375 L 5.96875 -15.78125 L 5.96875 -17.609375 L 11.671875 -20.953125 Z M 11.671875 -18.84375 "/></g></g></g><g fill="#000000" fill-opacity="1"><g transform="translate(252.864761, 188.156793)"><g/></g></g><g fill="#000000" fill-opacity="1"><g transform="translate(260.017421, 188.156793)"><g><path d="M 9.21875 -14.953125 C 11 -14.953125 12.441406 -14.410156 13.546875 -13.328125 C 14.660156 -12.242188 15.21875 -10.6875 15.21875 -8.65625 L 15.21875 0 L 12.8125 0 L 12.8125 -8.3125 C 12.8125 -9.769531 12.441406 -10.882812 11.703125 -11.65625 C 10.972656 -12.4375 9.972656 -12.828125 8.703125 -12.828125 C 7.421875 -12.828125 6.398438 -12.425781 5.640625 -11.625 C 4.878906 -10.820312 4.5 -9.65625 4.5 -8.125 L 4.5 0 L 2.0625 0 L 2.0625 -14.6875 L 4.5 -14.6875 L 4.5 -12.59375 C 4.976562 -13.34375 5.632812 -13.921875 6.46875 -14.328125 C 7.300781 -14.742188 8.21875 -14.953125 9.21875 -14.953125 Z M 9.21875 -14.953125 "/></g></g></g><g fill="#000000" fill-opacity="1"><g transform="translate(277.162386, 188.156793)"><g><path d="M 1.15625 -7.390625 C 1.15625 -8.890625 1.457031 -10.207031 2.0625 -11.34375 C 2.664062 -12.476562 3.5 -13.359375 4.5625 -13.984375 C 5.625 -14.609375 6.8125 -14.921875 8.125 -14.921875 C 9.40625 -14.921875 10.519531 -14.644531 11.46875 -14.09375 C 12.414062 -13.539062 13.125 -12.84375 13.59375 -12 L 13.59375 -14.6875 L 16.046875 -14.6875 L 16.046875 0 L 13.59375 0 L 13.59375 -2.734375 C 13.101562 -1.878906 12.378906 -1.171875 11.421875 -0.609375 C 10.472656 -0.046875 9.363281 0.234375 8.09375 0.234375 C 6.789062 0.234375 5.609375 -0.0820312 4.546875 -0.71875 C 3.492188 -1.363281 2.664062 -2.265625 2.0625 -3.421875 C 1.457031 -4.585938 1.15625 -5.910156 1.15625 -7.390625 Z M 13.59375 -7.375 C 13.59375 -8.476562 13.367188 -9.441406 12.921875 -10.265625 C 12.472656 -11.085938 11.867188 -11.71875 11.109375 -12.15625 C 10.347656 -12.59375 9.515625 -12.8125 8.609375 -12.8125 C 7.691406 -12.8125 6.859375 -12.59375 6.109375 -12.15625 C 5.359375 -11.726562 4.757812 -11.101562 4.3125 -10.28125 C 3.863281 -9.46875 3.640625 -8.503906 3.640625 -7.390625 C 3.640625 -6.265625 3.863281 -5.285156 4.3125 -4.453125 C 4.757812 -3.628906 5.359375 -3 6.109375 -2.5625 C 6.859375 -2.125 7.691406 -1.90625 8.609375 -1.90625 C 9.515625 -1.90625 10.347656 -2.125 11.109375 -2.5625 C 11.867188 -3 12.472656 -3.628906 12.921875 -4.453125 C 13.367188 -5.285156 13.59375 -6.257812 13.59375 -7.375 Z M 13.59375 -7.375 "/></g></g></g><g fill="#000000" fill-opacity="1"><g transform="translate(295.271756, 188.156793)"><g><path d="M 1.15625 -7.390625 C 1.15625 -8.890625 1.457031 -10.207031 2.0625 -11.34375 C 2.664062 -12.476562 3.5 -13.359375 4.5625 -13.984375 C 5.625 -14.609375 6.816406 -14.921875 8.140625 -14.921875 C 9.285156 -14.921875 10.347656 -14.65625 11.328125 -14.125 C 12.316406 -13.601562 13.070312 -12.914062 13.59375 -12.0625 L 13.59375 -19.828125 L 16.046875 -19.828125 L 16.046875 0 L 13.59375 0 L 13.59375 -2.765625 C 13.101562 -1.890625 12.382812 -1.171875 11.4375 -0.609375 C 10.488281 -0.046875 9.382812 0.234375 8.125 0.234375 C 6.8125 0.234375 5.625 -0.0820312 4.5625 -0.71875 C 3.5 -1.363281 2.664062 -2.265625 2.0625 -3.421875 C 1.457031 -4.585938 1.15625 -5.910156 1.15625 -7.390625 Z M 13.59375 -7.375 C 13.59375 -8.476562 13.367188 -9.441406 12.921875 -10.265625 C 12.472656 -11.085938 11.867188 -11.71875 11.109375 -12.15625 C 10.347656 -12.59375 9.515625 -12.8125 8.609375 -12.8125 C 7.691406 -12.8125 6.859375 -12.59375 6.109375 -12.15625 C 5.359375 -11.726562 4.757812 -11.101562 4.3125 -10.28125 C 3.863281 -9.46875 3.640625 -8.503906 3.640625 -7.390625 C 3.640625 -6.265625 3.863281 -5.285156 4.3125 -4.453125 C 4.757812 -3.628906 5.359375 -3 6.109375 -2.5625 C 6.859375 -2.125 7.691406 -1.90625 8.609375 -1.90625 C 9.515625 -1.90625 10.347656 -2.125 11.109375 -2.5625 C 11.867188 -3 12.472656 -3.628906 12.921875 -4.453125 C 13.367188 -5.285156 13.59375 -6.257812 13.59375 -7.375 Z M 13.59375 -7.375 "/></g></g></g><g fill="#000000" fill-opacity="1"><g transform="translate(313.381126, 188.156793)"><g><path d="M 1.15625 -7.390625 C 1.15625 -8.890625 1.457031 -10.207031 2.0625 -11.34375 C 2.664062 -12.476562 3.5 -13.359375 4.5625 -13.984375 C 5.625 -14.609375 6.8125 -14.921875 8.125 -14.921875 C 9.40625 -14.921875 10.519531 -14.644531 11.46875 -14.09375 C 12.414062 -13.539062 13.125 -12.84375 13.59375 -12 L 13.59375 -14.6875 L 16.046875 -14.6875 L 16.046875 0 L 13.59375 0 L 13.59375 -2.734375 C 13.101562 -1.878906 12.378906 -1.171875 11.421875 -0.609375 C 10.472656 -0.046875 9.363281 0.234375 8.09375 0.234375 C 6.789062 0.234375 5.609375 -0.0820312 4.546875 -0.71875 C 3.492188 -1.363281 2.664062 -2.265625 2.0625 -3.421875 C 1.457031 -4.585938 1.15625 -5.910156 1.15625 -7.390625 Z M 13.59375 -7.375 C 13.59375 -8.476562 13.367188 -9.441406 12.921875 -10.265625 C 12.472656 -11.085938 11.867188 -11.71875 11.109375 -12.15625 C 10.347656 -12.59375 9.515625 -12.8125 8.609375 -12.8125 C 7.691406 -12.8125 6.859375 -12.59375 6.109375 -12.15625 C 5.359375 -11.726562 4.757812 -11.101562 4.3125 -10.28125 C 3.863281 -9.46875 3.640625 -8.503906 3.640625 -7.390625 C 3.640625 -6.265625 3.863281 -5.285156 4.3125 -4.453125 C 4.757812 -3.628906 5.359375 -3 6.109375 -2.5625 C 6.859375 -2.125 7.691406 -1.90625 8.609375 -1.90625 C 9.515625 -1.90625 10.347656 -2.125 11.109375 -2.5625 C 11.867188 -3 12.472656 -3.628906 12.921875 -4.453125 C 13.367188 -5.285156 13.59375 -6.257812 13.59375 -7.375 Z M 13.59375 -7.375 "/></g></g></g><g fill="#000000" fill-opacity="1"><g transform="translate(184.179353, 225.656791)"><g><path d="M 4.5 -11.984375 C 4.976562 -12.816406 5.695312 -13.515625 6.65625 -14.078125 C 7.613281 -14.640625 8.726562 -14.921875 10 -14.921875 C 11.300781 -14.921875 12.484375 -14.609375 13.546875 -13.984375 C 14.609375 -13.359375 15.441406 -12.476562 16.046875 -11.34375 C 16.660156 -10.207031 16.96875 -8.890625 16.96875 -7.390625 C 16.96875 -5.910156 16.660156 -4.585938 16.046875 -3.421875 C 15.441406 -2.265625 14.609375 -1.363281 13.546875 -0.71875 C 12.484375 -0.0820312 11.300781 0.234375 10 0.234375 C 8.75 0.234375 7.644531 -0.046875 6.6875 -0.609375 C 5.726562 -1.171875 5 -1.867188 4.5 -2.703125 L 4.5 6.96875 L 2.0625 6.96875 L 2.0625 -14.6875 L 4.5 -14.6875 Z M 14.46875 -7.390625 C 14.46875 -8.503906 14.242188 -9.46875 13.796875 -10.28125 C 13.347656 -11.101562 12.742188 -11.726562 11.984375 -12.15625 C 11.234375 -12.59375 10.398438 -12.8125 9.484375 -12.8125 C 8.585938 -12.8125 7.757812 -12.59375 7 -12.15625 C 6.25 -11.71875 5.644531 -11.082031 5.1875 -10.25 C 4.726562 -9.414062 4.5 -8.457031 4.5 -7.375 C 4.5 -6.257812 4.726562 -5.285156 5.1875 -4.453125 C 5.644531 -3.628906 6.25 -3 7 -2.5625 C 7.757812 -2.125 8.585938 -1.90625 9.484375 -1.90625 C 10.398438 -1.90625 11.234375 -2.125 11.984375 -2.5625 C 12.742188 -3 13.347656 -3.628906 13.796875 -4.453125 C 14.242188 -5.285156 14.46875 -6.265625 14.46875 -7.390625 Z M 14.46875 -7.390625 "/></g></g></g><g fill="#000000" fill-opacity="1"><g transform="translate(202.288723, 225.656791)"><g><path d="M 8.46875 0.234375 C 7.09375 0.234375 5.847656 -0.078125 4.734375 -0.703125 C 3.617188 -1.328125 2.742188 -2.210938 2.109375 -3.359375 C 1.472656 -4.515625 1.15625 -5.851562 1.15625 -7.375 C 1.15625 -8.875 1.476562 -10.195312 2.125 -11.34375 C 2.78125 -12.5 3.671875 -13.382812 4.796875 -14 C 5.921875 -14.613281 7.179688 -14.921875 8.578125 -14.921875 C 9.972656 -14.921875 11.234375 -14.613281 12.359375 -14 C 13.484375 -13.382812 14.367188 -12.503906 15.015625 -11.359375 C 15.671875 -10.210938 16 -8.882812 16 -7.375 C 16 -5.851562 15.660156 -4.515625 14.984375 -3.359375 C 14.316406 -2.210938 13.410156 -1.328125 12.265625 -0.703125 C 11.128906 -0.078125 9.863281 0.234375 8.46875 0.234375 Z M 8.46875 -1.90625 C 9.34375 -1.90625 10.160156 -2.109375 10.921875 -2.515625 C 11.691406 -2.929688 12.3125 -3.546875 12.78125 -4.359375 C 13.257812 -5.179688 13.5 -6.1875 13.5 -7.375 C 13.5 -8.550781 13.265625 -9.550781 12.796875 -10.375 C 12.335938 -11.195312 11.734375 -11.804688 10.984375 -12.203125 C 10.234375 -12.609375 9.421875 -12.8125 8.546875 -12.8125 C 7.648438 -12.8125 6.832031 -12.609375 6.09375 -12.203125 C 5.351562 -11.804688 4.757812 -11.195312 4.3125 -10.375 C 3.863281 -9.550781 3.640625 -8.550781 3.640625 -7.375 C 3.640625 -6.175781 3.859375 -5.164062 4.296875 -4.34375 C 4.734375 -3.519531 5.316406 -2.90625 6.046875 -2.5 C 6.785156 -2.101562 7.59375 -1.90625 8.46875 -1.90625 Z M 8.46875 -1.90625 "/></g></g></g><g fill="#000000" fill-opacity="1"><g transform="translate(219.433688, 225.656791)"><g><path d="M 4.5 -12.296875 C 4.925781 -13.140625 5.535156 -13.789062 6.328125 -14.25 C 7.128906 -14.71875 8.101562 -14.953125 9.25 -14.953125 L 9.25 -12.4375 L 8.609375 -12.4375 C 5.867188 -12.4375 4.5 -10.953125 4.5 -7.984375 L 4.5 0 L 2.0625 0 L 2.0625 -14.6875 L 4.5 -14.6875 Z M 4.5 -12.296875 "/></g></g></g><g fill="#000000" fill-opacity="1"><g transform="translate(229.425993, 225.656791)"><g/></g></g><g fill="#000000" fill-opacity="1"><g transform="translate(236.578653, 225.656791)"><g><path d="M 1.15625 -7.390625 C 1.15625 -8.890625 1.457031 -10.207031 2.0625 -11.34375 C 2.664062 -12.476562 3.5 -13.359375 4.5625 -13.984375 C 5.625 -14.609375 6.8125 -14.921875 8.125 -14.921875 C 9.40625 -14.921875 10.519531 -14.644531 11.46875 -14.09375 C 12.414062 -13.539062 13.125 -12.84375 13.59375 -12 L 13.59375 -14.6875 L 16.046875 -14.6875 L 16.046875 0 L 13.59375 0 L 13.59375 -2.734375 C 13.101562 -1.878906 12.378906 -1.171875 11.421875 -0.609375 C 10.472656 -0.046875 9.363281 0.234375 8.09375 0.234375 C 6.789062 0.234375 5.609375 -0.0820312 4.546875 -0.71875 C 3.492188 -1.363281 2.664062 -2.265625 2.0625 -3.421875 C 1.457031 -4.585938 1.15625 -5.910156 1.15625 -7.390625 Z M 13.59375 -7.375 C 13.59375 -8.476562 13.367188 -9.441406 12.921875 -10.265625 C 12.472656 -11.085938 11.867188 -11.71875 11.109375 -12.15625 C 10.347656 -12.59375 9.515625 -12.8125 8.609375 -12.8125 C 7.691406 -12.8125 6.859375 -12.59375 6.109375 -12.15625 C 5.359375 -11.726562 4.757812 -11.101562 4.3125 -10.28125 C 3.863281 -9.46875 3.640625 -8.503906 3.640625 -7.390625 C 3.640625 -6.265625 3.863281 -5.285156 4.3125 -4.453125 C 4.757812 -3.628906 5.359375 -3 6.109375 -2.5625 C 6.859375 -2.125 7.691406 -1.90625 8.609375 -1.90625 C 9.515625 -1.90625 10.347656 -2.125 11.109375 -2.5625 C 11.867188 -3 12.472656 -3.628906 12.921875 -4.453125 C 13.367188 -5.285156 13.59375 -6.257812 13.59375 -7.375 Z M 13.59375 -7.375 "/></g></g></g><g fill="#000000" fill-opacity="1"><g transform="translate(254.688022, 225.656791)"><g><path d="M 1.15625 -7.390625 C 1.15625 -8.890625 1.457031 -10.207031 2.0625 -11.34375 C 2.664062 -12.476562 3.5 -13.359375 4.5625 -13.984375 C 5.625 -14.609375 6.816406 -14.921875 8.140625 -14.921875 C 9.410156 -14.921875 10.523438 -14.640625 11.484375 -14.078125 C 12.441406 -13.515625 13.144531 -12.820312 13.59375 -12 L 13.59375 -14.6875 L 16.046875 -14.6875 L 16.046875 6.96875 L 13.59375 6.96875 L 13.59375 -2.703125 C 13.125 -1.878906 12.40625 -1.179688 11.4375 -0.609375 C 10.476562 -0.046875 9.351562 0.234375 8.0625 0.234375 C 6.78125 0.234375 5.609375 -0.0820312 4.546875 -0.71875 C 3.492188 -1.363281 2.664062 -2.265625 2.0625 -3.421875 C 1.457031 -4.585938 1.15625 -5.910156 1.15625 -7.390625 Z M 13.59375 -7.375 C 13.59375 -8.476562 13.367188 -9.441406 12.921875 -10.265625 C 12.472656 -11.085938 11.867188 -11.71875 11.109375 -12.15625 C 10.347656 -12.59375 9.515625 -12.8125 8.609375 -12.8125 C 7.691406 -12.8125 6.859375 -12.59375 6.109375 -12.15625 C 5.359375 -11.726562 4.757812 -11.101562 4.3125 -10.28125 C 3.863281 -9.46875 3.640625 -8.503906 3.640625 -7.390625 C 3.640625 -6.265625 3.863281 -5.285156 4.3125 -4.453125 C 4.757812 -3.628906 5.359375 -3 6.109375 -2.5625 C 6.859375 -2.125 7.691406 -1.90625 8.609375 -1.90625 C 9.515625 -1.90625 10.347656 -2.125 11.109375 -2.5625 C 11.867188 -3 12.472656 -3.628906 12.921875 -4.453125 C 13.367188 -5.285156 13.59375 -6.257812 13.59375 -7.375 Z M 13.59375 -7.375 "/></g></g></g><g fill="#000000" fill-opacity="1"><g transform="translate(272.797392, 225.656791)"><g><path d="M 15.09375 -14.6875 L 15.09375 0 L 12.640625 0 L 12.640625 -2.171875 C 12.179688 -1.421875 11.535156 -0.832031 10.703125 -0.40625 C 9.867188 0.0078125 8.953125 0.21875 7.953125 0.21875 C 6.816406 0.21875 5.789062 -0.015625 4.875 -0.484375 C 3.96875 -0.960938 3.25 -1.675781 2.71875 -2.625 C 2.1875 -3.570312 1.921875 -4.722656 1.921875 -6.078125 L 1.921875 -14.6875 L 4.34375 -14.6875 L 4.34375 -6.40625 C 4.34375 -4.957031 4.707031 -3.84375 5.4375 -3.0625 C 6.164062 -2.289062 7.164062 -1.90625 8.4375 -1.90625 C 9.738281 -1.90625 10.765625 -2.304688 11.515625 -3.109375 C 12.265625 -3.910156 12.640625 -5.082031 12.640625 -6.625 L 12.640625 -14.6875 Z M 15.09375 -14.6875 "/></g></g></g><g fill="#000000" fill-opacity="1"><g transform="translate(289.942357, 225.656791)"><g><path d="M 3.328125 -17.0625 C 2.859375 -17.0625 2.460938 -17.222656 2.140625 -17.546875 C 1.816406 -17.867188 1.65625 -18.265625 1.65625 -18.734375 C 1.65625 -19.191406 1.816406 -19.582031 2.140625 -19.90625 C 2.460938 -20.226562 2.859375 -20.390625 3.328125 -20.390625 C 3.773438 -20.390625 4.15625 -20.226562 4.46875 -19.90625 C 4.78125 -19.582031 4.9375 -19.191406 4.9375 -18.734375 C 4.9375 -18.265625 4.78125 -17.867188 4.46875 -17.546875 C 4.15625 -17.222656 3.773438 -17.0625 3.328125 -17.0625 Z M 4.5 -14.6875 L 4.5 0 L 2.0625 0 L 2.0625 -14.6875 Z M 4.5 -14.6875 "/></g></g></g></svg>